<svg width="624" height="201" viewBox="0 0 624 201" fill="none" xmlns="http://www.w3.org/2000/svg">
<path d="M42.3491 106.437L97.9122 50.7944H78.8457L57.1049 29.0229H150.204L57.4979 121.86L42.3491 106.437Z" fill="#231F20"/>
<path d="M19.6274 168.227L34.1079 182.711L132.892 83.9041V129.812L155.275 152.2V31.9485L19.6274 168.227Z" fill="#BE050D"/>
<path d="M191.432 131L221.448 65.256H182.024V51.032H239.368V61.672L209.128 131H191.432ZM331.212 131L325.388 111.96H296.268L290.444 131H272.188L300.412 50.696H321.132L349.468 131H331.212ZM315.532 79.144C315.158 77.8747 314.673 76.2693 314.076 74.328C313.478 72.3867 312.881 70.408 312.284 68.392C311.686 66.376 311.201 64.6213 310.828 63.128C310.454 64.6213 309.932 66.488 309.26 68.728C308.662 70.8933 308.065 72.984 307.468 75C306.945 76.9413 306.534 78.3227 306.236 79.144L300.524 97.736H321.356L315.532 79.144ZM392.972 68.728C399.542 68.728 404.806 70.52 408.764 74.104C412.721 77.6133 414.7 83.288 414.7 91.128V131H398.012V95.272C398.012 90.8667 397.228 87.5813 395.66 85.416C394.092 83.176 391.59 82.056 388.156 82.056C383.078 82.056 379.606 83.8107 377.74 87.32C375.873 90.7547 374.94 95.72 374.94 102.216V131H358.252V69.848H371.02L373.26 77.688H374.156C375.5 75.5973 377.142 73.9173 379.084 72.648C381.025 71.304 383.19 70.3333 385.58 69.736C387.969 69.064 390.433 68.728 392.972 68.728ZM451.685 68.728C455.418 68.728 458.778 69.4747 461.765 70.968C464.752 72.4613 467.29 74.7013 469.381 77.688H469.829L471.173 69.848H485.285V131.112C485.285 136.936 484.128 141.827 481.813 145.784C479.573 149.741 476.176 152.728 471.621 154.744C467.066 156.835 461.429 157.88 454.709 157.88C450.378 157.88 446.346 157.619 442.613 157.096C438.954 156.573 435.37 155.64 431.861 154.296V140.968C434.4 142.013 436.938 142.872 439.477 143.544C442.09 144.291 444.741 144.813 447.429 145.112C450.192 145.485 452.954 145.672 455.717 145.672C460.048 145.672 463.258 144.515 465.349 142.2C467.514 139.885 468.597 136.413 468.597 131.784V130.552C468.597 129.283 468.634 127.976 468.709 126.632C468.858 125.288 468.97 124.093 469.045 123.048H468.597C466.506 126.259 464.005 128.573 461.093 129.992C458.181 131.411 454.896 132.12 451.237 132.12C443.994 132.12 438.32 129.357 434.213 123.832C430.181 118.232 428.165 110.467 428.165 100.536C428.165 93.816 429.098 88.104 430.965 83.4C432.832 78.6213 435.52 75 439.029 72.536C442.613 69.9973 446.832 68.728 451.685 68.728ZM456.949 82.28C454.336 82.28 452.133 82.9893 450.341 84.408C448.624 85.752 447.317 87.8053 446.421 90.568C445.6 93.256 445.189 96.6533 445.189 100.76C445.189 106.883 446.16 111.475 448.101 114.536C450.042 117.523 453.066 119.016 457.173 119.016C459.338 119.016 461.205 118.755 462.773 118.232C464.341 117.635 465.61 116.701 466.581 115.432C467.626 114.088 468.41 112.371 468.933 110.28C469.456 108.189 469.717 105.651 469.717 102.664V100.648C469.717 96.2427 469.269 92.696 468.373 90.008C467.477 87.32 466.096 85.3787 464.229 84.184C462.362 82.9147 459.936 82.28 456.949 82.28ZM519.424 131H502.736V45.88H519.424V131ZM562.061 68.728C567.736 68.728 572.589 69.8107 576.621 71.976C580.728 74.1413 583.901 77.2773 586.141 81.384C588.381 85.4907 589.501 90.5307 589.501 96.504V104.568H550.077C550.226 109.272 551.608 112.968 554.221 115.656C556.909 118.344 560.605 119.688 565.309 119.688C569.266 119.688 572.85 119.315 576.061 118.568C579.272 117.747 582.594 116.515 586.029 114.872V127.752C583.042 129.245 579.869 130.328 576.509 131C573.224 131.747 569.229 132.12 564.525 132.12C558.402 132.12 552.989 131 548.285 128.76C543.581 126.445 539.885 122.973 537.197 118.344C534.509 113.715 533.165 107.891 533.165 100.872C533.165 93.704 534.36 87.768 536.749 83.064C539.213 78.2853 542.61 74.7013 546.941 72.312C551.272 69.9227 556.312 68.728 562.061 68.728ZM562.173 80.6C558.962 80.6 556.274 81.6453 554.109 83.736C552.018 85.8267 550.786 89.0747 550.413 93.48H573.821C573.821 91.016 573.373 88.8133 572.477 86.872C571.656 84.9307 570.386 83.4 568.669 82.28C566.952 81.16 564.786 80.6 562.173 80.6Z" fill="#231F20"/>
</svg>
