<?xml version="1.0" encoding="UTF-8"?>
<svg version="1.1" xmlns="http://www.w3.org/2000/svg" width="131" height="23">
<path d="M0 0 C1.70840281 1.63412443 2.93453047 2.86906094 4 5 C5.97888961 5.72693904 7.97954558 6.39816251 10 7 C9.690625 7.5775 9.38125 8.155 9.0625 8.75 C7.24993954 12.58836333 6.88236552 15.76515874 7 20 C6.236875 19.67 5.47375 19.34 4.6875 19 C0.41535909 17.41036617 -1.95586595 18.25118528 -6 20 C-5.938125 18.741875 -5.87625 17.48375 -5.8125 16.1875 C-5.72774237 12.88391122 -5.72774237 12.88391122 -7.5 10.1875 C-7.995 9.795625 -8.49 9.40375 -9 9 C-9 8.01 -9 7.02 -9 6 C-8.071875 5.938125 -7.14375 5.87625 -6.1875 5.8125 C-2.8109337 5.31172896 -2.8109337 5.31172896 -1.125 2.4375 C-0.75375 1.633125 -0.3825 0.82875 0 0 Z " fill="#F2CC02" transform="translate(92,1)"/>
<path d="M0 0 C1.70840281 1.63412443 2.93453047 2.86906094 4 5 C5.97888961 5.72693904 7.97954558 6.39816251 10 7 C9.690625 7.5775 9.38125 8.155 9.0625 8.75 C7.24993954 12.58836333 6.88236552 15.76515874 7 20 C6.236875 19.67 5.47375 19.34 4.6875 19 C0.41535909 17.41036617 -1.95586595 18.25118528 -6 20 C-5.938125 18.741875 -5.87625 17.48375 -5.8125 16.1875 C-5.72774237 12.88391122 -5.72774237 12.88391122 -7.5 10.1875 C-7.995 9.795625 -8.49 9.40375 -9 9 C-9 8.01 -9 7.02 -9 6 C-8.071875 5.938125 -7.14375 5.87625 -6.1875 5.8125 C-2.8109337 5.31172896 -2.8109337 5.31172896 -1.125 2.4375 C-0.75375 1.633125 -0.3825 0.82875 0 0 Z " fill="#F2CC02" transform="translate(65,1)"/>
<path d="M0 0 C1.70840281 1.63412443 2.93453047 2.86906094 4 5 C5.97888961 5.72693904 7.97954558 6.39816251 10 7 C9.690625 7.5775 9.38125 8.155 9.0625 8.75 C7.24993954 12.58836333 6.88236552 15.76515874 7 20 C6.236875 19.67 5.47375 19.34 4.6875 19 C0.41535909 17.41036617 -1.95586595 18.25118528 -6 20 C-5.938125 18.741875 -5.87625 17.48375 -5.8125 16.1875 C-5.72774237 12.88391122 -5.72774237 12.88391122 -7.5 10.1875 C-7.995 9.795625 -8.49 9.40375 -9 9 C-9 8.01 -9 7.02 -9 6 C-8.071875 5.938125 -7.14375 5.87625 -6.1875 5.8125 C-2.8109337 5.31172896 -2.8109337 5.31172896 -1.125 2.4375 C-0.75375 1.633125 -0.3825 0.82875 0 0 Z " fill="#F2CC02" transform="translate(38,1)"/>
<path d="M0 0 C1.70840281 1.63412443 2.93453047 2.86906094 4 5 C5.97888961 5.72693904 7.97954558 6.39816251 10 7 C9.690625 7.5775 9.38125 8.155 9.0625 8.75 C7.24993954 12.58836333 6.88236552 15.76515874 7 20 C6.236875 19.67 5.47375 19.34 4.6875 19 C0.41535909 17.41036617 -1.95586595 18.25118528 -6 20 C-5.938125 18.741875 -5.87625 17.48375 -5.8125 16.1875 C-5.72774237 12.88391122 -5.72774237 12.88391122 -7.5 10.1875 C-7.995 9.795625 -8.49 9.40375 -9 9 C-9 8.01 -9 7.02 -9 6 C-8.071875 5.938125 -7.14375 5.87625 -6.1875 5.8125 C-2.8109337 5.31172896 -2.8109337 5.31172896 -1.125 2.4375 C-0.75375 1.633125 -0.3825 0.82875 0 0 Z " fill="#F2CC02" transform="translate(11,1)"/>
<path d="M0 0 C1.70840281 1.63412443 2.93453047 2.86906094 4 5 C5.97888961 5.72693904 7.97954558 6.39816251 10 7 C9.690625 7.5775 9.38125 8.155 9.0625 8.75 C7.24993954 12.58836333 6.88236552 15.76515874 7 20 C6.236875 19.67 5.47375 19.34 4.6875 19 C0.41535909 17.41036617 -1.95586595 18.25118528 -6 20 C-5.938125 18.741875 -5.87625 17.48375 -5.8125 16.1875 C-5.72774237 12.88391122 -5.72774237 12.88391122 -7.5 10.1875 C-7.995 9.795625 -8.49 9.40375 -9 9 C-9 8.01 -9 7.02 -9 6 C-8.071875 5.938125 -7.14375 5.87625 -6.1875 5.8125 C-2.8109337 5.31172896 -2.8109337 5.31172896 -1.125 2.4375 C-0.75375 1.633125 -0.3825 0.82875 0 0 Z M0 5 C-0.103125 5.639375 -0.20625 6.27875 -0.3125 6.9375 C-0.539375 7.618125 -0.76625 8.29875 -1 9 C-1.99 9.33 -2.98 9.66 -4 10 C-3.34 11.32 -2.68 12.64 -2 14 C-0.35 14 1.3 14 3 14 C3.66 12.35 4.32 10.7 5 9 C4.01 9 3.02 9 2 9 C1.34 7.68 0.68 6.36 0 5 Z " fill="#F2CC02" transform="translate(119,1)"/>
</svg>
